<svg xmlns="http://www.w3.org/2000/svg" width="49" height="37.94" viewBox="0 0 49 37.94">
  <defs>
    <style>
      .cls-1 {
        fill: #111;
        fill-rule: evenodd;
      }
    </style>
  </defs>
  <path id="Arrow" class="cls-1" d="M3314.39,1810.38h34l-9.86,9.81a3.4,3.4,0,0,0,2.41,5.79,3.353,3.353,0,0,0,2.4-1l15.66-15.59a3.307,3.307,0,0,0,.73-1.1,3.265,3.265,0,0,0,0-2.6,3.307,3.307,0,0,0-.73-1.1L3343.34,1789a3.391,3.391,0,0,0-4.81,4.78l9.86,9.82h-34A3.39,3.39,0,1,0,3314.39,1810.38Z" transform="translate(-3311 -1788.03)"/>
</svg>
